<svg preserveAspectRatio="xMidYMid meet" data-bbox="38.9 27 122.1 145.9" viewBox="38.9 27 122.1 145.9" xmlns="http://www.w3.org/2000/svg" data-type="color" role="presentation" aria-hidden="true" aria-labelledby="svgcid-27io2l-9l262k"><defs><style>#comp-kdz7xmmx svg [data-color="1"] {fill: #000000;}</style></defs><title id="svgcid-27io2l-9l262k"></title>
    <g>
        <path d="M141 27c-11.1 0-20 8.9-20 19.8 0 2.4.5 4.8 1.3 7L72.1 81.7c-3.5-3.1-8-5-13.2-5-11.1 0-20 8.9-20 19.8 0 11 9 19.8 20 19.8 4.7 0 9-1.6 12.4-4.3l25.8 29.7c-2.3 3.2-3.5 7-3.5 11.4 0 11 9 19.8 20 19.8 11.1 0 20-8.9 20-19.8s-9-19.8-20-19.8c-5.3 0-10.3 2.1-13.8 5.6l-25.6-29.4c2.9-3.5 4.8-8 4.8-12.8 0-4.5-1.6-8.7-4-12l49.1-27.3c3.5 5.6 9.8 9.3 16.9 9.3 11.1 0 20-8.9 20-19.8-.1-11.1-9.1-19.9-20-19.9zm-27.5 110.5c8.8 0 15.9 7.2 15.9 15.9 0 8.8-7.2 15.9-15.9 15.9s-15.9-7.2-15.9-15.9c0-8.9 7.3-15.9 15.9-15.9zm-54.5-25c-8.8 0-15.9-7.2-15.9-15.9 0-8.8 7.2-15.9 15.9-15.9 4.2 0 7.9 1.6 10.7 4.1 0 .2 0 .2.2.4.4.5.6.8 1.1 1 2.5 2.9 4 6.6 4 10.5 0 8.8-7.2 15.8-16 15.8zm82-49.8c-8.8 0-15.9-7.2-15.9-15.9 0-8.8 7.2-15.9 15.9-15.9s15.9 7.2 15.9 15.9c.1 8.9-7.2 15.9-15.9 15.9z" fill="#92a8b4" data-color="1"></path>
    </g>
</svg>